<?xml version="1.0" standalone="no"?>
<!DOCTYPE svg PUBLIC "-//W3C//DTD SVG 20010904//EN"
 "http://www.w3.org/TR/2001/REC-SVG-20010904/DTD/svg10.dtd">
<svg version="1.0" xmlns="http://www.w3.org/2000/svg"
 width="512.000000pt" height="512.000000pt" viewBox="0 0 512.000000 512.000000"
 preserveAspectRatio="xMidYMid meet">

<g transform="translate(0.000000,512.000000) scale(0.100000,-0.100000)"
fill="#000000" stroke="none">
<path d="M196 4425 c-73 -30 -137 -91 -168 -159 l-23 -51 0 -1655 0 -1655 28
-56 c35 -72 98 -131 171 -158 l57 -21 2299 0 2299 0 57 21 c73 27 136 86 171
158 l28 56 3 1327 2 1326 -482 446 -483 445 -1950 0 -1950 1 -59 -25z m3764
-593 c0 -400 1 -406 71 -444 31 -17 65 -18 431 -18 l398 0 -2 -1206 c-3 -1180
-3 -1206 -22 -1220 -30 -21 -4522 -21 -4552 0 -19 14 -19 42 -19 1616 0 1574
0 1602 19 1616 17 12 285 14 1848 14 l1828 0 0 -358z m472 2 c112 -103 205
-191 206 -196 2 -5 -89 -7 -205 -6 l-208 3 -3 193 c-1 105 0 192 3 192 3 0 96
-84 207 -186z"/>
<path d="M610 3745 c0 -15 225 -911 257 -1023 l15 -53 90 3 91 3 92 340 c51
187 96 354 100 370 7 26 13 10 41 -110 19 -77 59 -245 90 -372 l56 -233 89 0
c48 0 90 4 93 8 5 9 306 1067 306 1077 0 3 -44 4 -97 3 l-97 -3 -43 -165 c-24
-91 -68 -259 -97 -375 -52 -204 -54 -209 -64 -170 -5 22 -45 191 -89 375 l-78
335 -92 3 -92 3 -10 -38 c-109 -410 -181 -690 -181 -702 0 -62 -45 115 -174
684 l-11 50 -98 3 c-83 2 -97 0 -97 -13z"/>
<path d="M2085 3508 c-50 -27 -68 -80 -44 -131 24 -54 -8 -52 839 -55 432 -2
799 0 816 3 93 17 116 138 34 180 -25 13 -134 15 -827 15 -561 -1 -804 -4
-818 -12z"/>
<path d="M2065 2849 c-68 -20 -88 -108 -36 -160 l29 -29 1182 0 c1034 0 1185
2 1210 15 48 25 63 75 39 128 -25 55 42 52 -1224 54 -667 1 -1183 -2 -1200 -8z"/>
<path d="M599 2231 c-21 -22 -29 -39 -29 -66 0 -27 8 -44 29 -66 l29 -29 1907
0 1907 0 29 29 c40 41 40 91 0 132 l-29 29 -1907 0 -1907 0 -29 -29z"/>
<path d="M624 1674 c-73 -36 -71 -135 3 -173 16 -8 538 -11 1908 -11 1370 0
1892 3 1908 11 80 41 74 148 -10 180 -15 5 -755 9 -1901 9 -1668 0 -1880 -2
-1908 -16z"/>
</g>
</svg>
