<?xml version="1.0" standalone="no"?>
<!DOCTYPE svg PUBLIC "-//W3C//DTD SVG 20010904//EN"
 "http://www.w3.org/TR/2001/REC-SVG-20010904/DTD/svg10.dtd">
<svg version="1.0" xmlns="http://www.w3.org/2000/svg"
 width="346.000000pt" height="512.000000pt" viewBox="0 0 346.000000 512.000000"
 preserveAspectRatio="xMidYMid meet">

<g transform="translate(0.000000,512.000000) scale(0.100000,-0.100000)"
fill="#000000" stroke="none">
<path d="M345 5098 c-59 -33 -100 -97 -132 -209 -17 -61 -18 -167 -18 -2329 0
-2163 1 -2268 18 -2329 32 -112 73 -178 129 -207 40 -21 2776 -21 2816 0 55
29 95 92 128 201 18 57 19 157 21 1871 l3 1811 -295 599 -295 599 -1178 2
c-846 2 -1183 -1 -1197 -9z m2257 -840 c3 -437 5 -508 19 -538 33 -72 24 -70
290 -70 l239 0 0 -1621 c0 -1098 -3 -1627 -10 -1640 -11 -19 -37 -19 -1390
-19 -1353 0 -1379 0 -1390 19 -7 14 -10 708 -10 2173 0 1933 2 2156 16 2176
l15 22 1109 0 1109 0 3 -502z m294 8 c68 -140 124 -257 124 -261 0 -3 -57 -4
-127 -3 l-128 3 -3 258 c-1 141 0 257 4 257 3 0 61 -114 130 -254z"/>
<path d="M560 4160 c0 -8 59 -524 133 -1165 l32 -280 56 -3 56 -3 57 463 c31
255 56 473 56 486 0 12 5 22 10 22 6 0 10 -16 10 -35 0 -19 9 -115 20 -213 10
-97 31 -283 45 -412 14 -129 28 -252 31 -272 l6 -38 53 0 c61 0 55 -16 79 185
8 66 29 228 46 360 17 132 49 382 70 555 22 173 43 325 45 338 5 21 2 22 -54
22 -57 0 -60 -1 -65 -27 -7 -36 -95 -783 -103 -880 -6 -73 -23 -103 -23 -40 0
33 -86 855 -96 915 -5 32 -6 32 -59 32 -53 0 -54 -1 -60 -32 -3 -18 -28 -229
-55 -468 -28 -239 -54 -451 -57 -470 -6 -35 -10 0 -78 640 -14 135 -28 264
-32 288 l-5 42 -59 0 c-33 0 -59 -4 -59 -10z"/>
<path d="M1454 3829 c-29 -32 -32 -163 -5 -206 l21 -33 488 0 c578 0 527 -13
527 130 0 143 51 130 -525 130 -482 0 -487 0 -506 -21z"/>
<path d="M1447 2948 c-52 -40 -49 -220 3 -248 12 -6 283 -10 724 -10 642 0
706 1 721 17 25 24 35 58 35 117 0 64 -16 113 -40 126 -30 16 -1422 13 -1443
-2z"/>
<path d="M563 2133 c-26 -39 -30 -150 -8 -197 l17 -36 1163 0 1163 0 17 36
c22 47 18 158 -8 197 l-17 27 -1155 0 -1155 0 -17 -27z"/>
<path d="M573 1366 c-27 -23 -28 -29 -28 -108 0 -63 4 -90 18 -111 l17 -27
1155 0 1155 0 17 27 c14 21 18 48 18 111 0 79 -1 85 -28 108 l-28 24 -1134 0
-1134 0 -28 -24z"/>
</g>
</svg>
